<svg width="120" height="65" viewBox="0 0 120 65" fill="none" xmlns="http://www.w3.org/2000/svg">
<rect x="1.5" y="1.5" width="117" height="62" stroke="white" stroke-width="3"/>
<path d="M14 52V15.25H26.85V20.8H19.4V30.45H24.4V36H19.4V52H14ZM31.0391 52V15.25H43.3891V20.8H36.4391V30.7H41.4391V36.1H36.4391V46.45H43.3891V52H31.0391ZM49.3965 52V15.25H54.7965V27.5V28.1H54.9965L55.2465 27.5L59.4465 15.25H64.9965L60.0465 27.35L65.6465 52H60.0965L56.4965 35.25H56.3465L54.7965 39V52H49.3965ZM70.1465 52V15.25H75.5465C78.7798 15.25 81.1632 16.15 82.6965 17.95C84.2298 19.7333 84.9965 22.3667 84.9965 25.85C84.9965 27.9167 84.6298 29.7083 83.8965 31.225C83.1798 32.725 82.3048 33.825 81.2715 34.525L84.9465 52H79.5465L76.4965 36.5H75.5465V52H70.1465ZM75.5465 31.5C76.5465 31.5 77.3382 31.2833 77.9215 30.85C78.5048 30.4 78.9215 29.7667 79.1715 28.95C79.4215 28.1333 79.5465 27.1667 79.5465 26.05C79.5465 24.3 79.2548 22.9583 78.6715 22.025C78.1048 21.075 77.0632 20.6 75.5465 20.6V31.5ZM88.8926 52L94.4426 15.25H101.043L106.593 52H101.343L100.343 44.5H95.1426L94.1426 52H88.8926ZM95.8926 38.8H99.5926L98.0426 26.45L97.8926 24.5H97.5926L97.4426 26.45L95.8926 38.8Z" fill="white"/>
</svg>
